# xmcd
#
# Track frame offsets:
#	150
#	16097
#	32307
#	50710
#	69122
#	88075
#	104565
#	116270
#	130155
#	142385
#	159550
#	171990
#	182957
#	196652
#	214255
#
# Disc length: 3012 seconds
#
# Revision: 1
# Processed by: cddbd v1.5.1PL0 Copyright (c) Steve Scherf et al.
# Submitted via: audiograbber 1.82.02
#
DISCID=d10bc20f
DTITLE=Various Artist - Sound Choice 8494 70's and 80's Country Vol 10
DYEAR=1900
DGENRE=Karaoke
TTITLE0=Crystal Gayle - If you ever change your mind
TTITLE1=Don Gibson - Woman ( Sensuous woman )
TTITLE2=Waylon Jennings - Rose in paradise
TTITLE3=Earl Thomas Conley - What I'd say
TTITLE4=Alabama - Lady down on love
TTITLE5=George Jones - I always get lucky with you
TTITLE6=Jessi Colter - What happened to blue eyes
TTITLE7=Vern Goslin - Who you gonna blame it on this time
TTITLE8=Billy "Crash" Craddock - Sweet Magnolia blossom
TTITLE9=Ronnie Milsap - Back on my mind again
TTITLE10=Judds - Don't be cruel
TTITLE11=Tom T. Hall - I love
TTITLE12=Kendalls - Sweet desire
TTITLE13=Restless Heart - That rock won't roll
TTITLE14=Johnny Rodriguez - You always come back ( to hurting me )
EXTD=
EXTT0=
EXTT1=
EXTT2=
EXTT3=
EXTT4=
EXTT5=
EXTT6=
EXTT7=
EXTT8=
EXTT9=
EXTT10=
EXTT11=
EXTT12=
EXTT13=
EXTT14=
PLAYORDER=
